<svg width="24" height="29" fill="none" xmlns="http://www.w3.org/2000/svg"><path d="M4.68 6.557h7.352v1.617H4.68c-.77.048-1.088.41-1.168.965L2.107 23.33c-.098.708-.292 2.331-.292 3.161 0 .83.77.966 1.274.966h8.97V29H2.663C.408 28.928-.082 27.456.01 26.49c.487-5.108 1.524-15.787 1.778-17.64.255-1.854 2.035-2.3 2.893-2.293z" fill="#00D870"/><path d="M19.32 6.557h-7.352v1.617h7.351c.77.048 1.088.41 1.168.965l1.406 14.19c.098.708.292 2.331.292 3.161 0 .83-.77.966-1.274.966h-8.97V29h9.395c2.256-.072 2.746-1.544 2.654-2.51-.487-5.108-1.524-15.787-1.778-17.64-.255-1.854-2.035-2.3-2.893-2.293z" fill="#00D870"/><path d="M15.962 5.158v1.4h-4.02v1.568h4.02v3.62c0 .637.35.868.85.868.498 0 .848-.231.848-.868V5.158c0-2.723-2.328-4.953-5.267-5.15-.14-.01-.282-.008-.425-.008v1.525c.196 0 .284.006.425.018 1.053.09 2.02.716 2.401 1.057.39.33 1.168 1.303 1.168 2.558z" fill="#00D870"/><path d="M8.015 5.158v1.4h4.02v1.568h-4.02v3.62c0 .637-.35.868-.849.868s-.849-.231-.849-.868V5.158c0-2.723 2.328-4.953 5.268-5.15.14-.01.281-.008.424-.008v1.525c-.195 0-.284.006-.424.018-1.054.09-2.02.716-2.402 1.057-.39.33-1.168 1.303-1.168 2.558z" fill="#00D870"/></svg>