<svg width="9" height="11" fill="none" xmlns="http://www.w3.org/2000/svg"><path d="M1.755 2.487h2.757v.614H1.755c-.288.018-.408.155-.438.366L.79 8.849c-.036.268-.11.884-.11 1.2 0 .314.29.365.478.365h3.364V11H.999c-.846-.027-1.03-.586-.995-.952C.186 8.111.575 4.06.67 3.357c.095-.703.763-.873 1.084-.87z" fill="#00D870"/><path d="M7.245 2.487H4.488v.614h2.757c.288.018.408.155.438.366l.527 5.382c.036.268.11.884.11 1.2 0 .314-.29.365-.478.365H4.478V11h3.523c.846-.027 1.03-.586.995-.952-.182-1.937-.571-5.988-.667-6.691-.095-.703-.763-.873-1.084-.87z" fill="#00D870"/><path d="M5.986 1.956v.531H4.479v.595h1.507v1.373c0 .242.131.33.318.33s.319-.088.319-.33V1.956C6.623.924 5.75.078 4.647.003 4.595-.001 4.542 0 4.488 0v.578c.073 0 .107.003.16.007.394.034.757.272.9.401.146.125.438.494.438.97z" fill="#00D870"/><path d="M3.006 1.956v.531h1.507v.595H3.006v1.373c0 .242-.131.33-.319.33-.187 0-.318-.088-.318-.33V1.956c0-1.032.873-1.878 1.975-1.953.053-.004.106-.003.16-.003v.578a1.55 1.55 0 00-.16.007c-.395.034-.757.272-.9.401a1.372 1.372 0 00-.438.97z" fill="#00D870"/></svg>