<svg width="144" height="27" fill="none" xmlns="http://www.w3.org/2000/svg"><path d="M0 25.951V6.501h10.26c2.64 0 4.62.464 5.94 1.39 1.34.926 2.01 2.149 2.01 3.668 0 1.019-.27 1.908-.81 2.667-.54.741-1.28 1.315-2.22 1.723-.94.407-2.02.611-3.24.611l.57-1.14c1.32 0 2.49.205 3.51.612 1.02.39 1.81.973 2.37 1.75.58.779.87 1.733.87 2.862 0 1.668-.71 2.973-2.13 3.918-1.42.926-3.51 1.39-6.27 1.39H0zm4.83-3.39h5.67c1.26 0 2.21-.185 2.85-.555.66-.39.99-1 .99-1.834 0-.815-.33-1.417-.99-1.806-.64-.407-1.59-.611-2.85-.611H4.47v-3.279h5.19c1.18 0 2.08-.185 2.7-.556.64-.389.96-.972.96-1.75 0-.76-.32-1.324-.96-1.695-.62-.389-1.52-.583-2.7-.583H4.83v12.67zm27.68 3.39v-2.917l-.3-.64v-5.223c0-.926-.31-1.648-.93-2.167-.6-.519-1.53-.778-2.79-.778a8.6 8.6 0 00-2.55.39c-.82.24-1.52.573-2.1 1l-1.68-3.03c.88-.573 1.94-1.018 3.18-1.333 1.24-.315 2.5-.472 3.78-.472 2.46 0 4.37.537 5.73 1.611 1.36 1.075 2.04 2.751 2.04 5.03v8.53h-4.38zm-4.92.223c-1.26 0-2.34-.195-3.24-.584-.9-.407-1.59-.954-2.07-1.64a3.926 3.926 0 01-.72-2.305c0-.89.23-1.667.69-2.334.48-.667 1.23-1.186 2.25-1.556 1.02-.39 2.35-.584 3.99-.584h4.29V19.7H29c-1.1 0-1.86.166-2.28.5-.4.333-.6.75-.6 1.25 0 .556.23 1 .69 1.334.48.315 1.13.472 1.95.472.78 0 1.48-.166 2.1-.5a3.078 3.078 0 001.35-1.528l.72 2a3.934 3.934 0 01-1.86 2.195c-.9.5-2.06.75-3.48.75zm13.535-.223V11.003h4.68v14.948h-4.68zm16.703.223c-1.72 0-3.25-.334-4.59-1-1.32-.668-2.37-1.575-3.15-2.724-.76-1.167-1.14-2.491-1.14-3.973 0-1.5.38-2.825 1.14-3.973.78-1.167 1.83-2.075 3.15-2.723 1.34-.667 2.87-1 4.59-1 1.7 0 3.22.333 4.56 1 1.34.648 2.39 1.547 3.15 2.695.76 1.149 1.14 2.482 1.14 4.001 0 1.482-.38 2.806-1.14 3.973-.76 1.149-1.81 2.056-3.15 2.723-1.34.667-2.86 1-4.56 1zm0-3.557c.78 0 1.48-.167 2.1-.5a3.724 3.724 0 001.47-1.417c.36-.63.54-1.37.54-2.223 0-.87-.18-1.611-.54-2.223a3.723 3.723 0 00-1.47-1.417c-.62-.333-1.32-.5-2.1-.5s-1.48.167-2.1.5c-.62.334-1.12.806-1.5 1.417-.36.612-.54 1.353-.54 2.223 0 .852.18 1.593.54 2.223.38.611.88 1.084 1.5 1.417.62.333 1.32.5 2.1.5zm11.979 3.334V11.003h4.47v4.223l-.63-1.222c.48-1.056 1.25-1.852 2.31-2.39 1.06-.555 2.35-.833 3.87-.833v4a5.92 5.92 0 00-.54-.027 4.446 4.446 0 00-.51-.028c-1.28 0-2.32.343-3.12 1.028-.78.667-1.17 1.714-1.17 3.14v7.057h-4.68zm20.695.223c-1.84 0-3.46-.334-4.86-1-1.38-.668-2.45-1.575-3.21-2.724-.76-1.167-1.14-2.491-1.14-3.973 0-1.5.37-2.825 1.11-3.973.76-1.167 1.79-2.075 3.09-2.723 1.3-.667 2.77-1 4.41-1 1.58 0 3 .315 4.26.944 1.28.612 2.29 1.5 3.03 2.668.74 1.148 1.11 2.528 1.11 4.14 0 .166-.01.361-.03.583l-.06.584h-13.11v-2.53h10.65l-1.8.75c0-.777-.17-1.454-.51-2.028a3.49 3.49 0 00-1.41-1.334c-.6-.333-1.3-.5-2.1-.5s-1.51.167-2.13.5c-.6.315-1.07.77-1.41 1.362-.34.574-.51 1.26-.51 2.056v.667c0 .815.19 1.537.57 2.167.4.611.95 1.084 1.65 1.417.72.315 1.56.473 2.52.473.86 0 1.61-.12 2.25-.362.66-.24 1.26-.602 1.8-1.083l2.49 2.5c-.74.778-1.67 1.38-2.79 1.806-1.12.408-2.41.612-3.87.612zm17.516 0c-1.9 0-3.38-.445-4.44-1.334-1.06-.908-1.59-2.25-1.59-4.029V7.697h4.68v13.059c0 .63.18 1.12.54 1.472.36.333.85.5 1.47.5.74 0 1.37-.185 1.89-.555l1.26 3.056c-.48.315-1.06.556-1.74.722-.66.148-1.35.223-2.07.223zm-8.52-11.503v-3.335h11.19v3.335h-11.19zm21.206 11.503c-1.9 0-3.38-.445-4.44-1.334-1.06-.908-1.59-2.25-1.59-4.029V7.697h4.68v13.059c0 .63.18 1.12.54 1.472.36.333.85.5 1.47.5.74 0 1.37-.185 1.89-.555l1.26 3.056c-.48.315-1.06.556-1.74.722-.66.148-1.35.223-2.07.223zm-8.52-11.503v-3.335h11.19v3.335h-11.19zm22.139 11.503c-1.72 0-3.25-.334-4.59-1-1.32-.668-2.37-1.575-3.15-2.724-.76-1.167-1.14-2.491-1.14-3.973 0-1.5.38-2.825 1.14-3.973.78-1.167 1.83-2.075 3.15-2.723 1.34-.667 2.87-1 4.59-1 1.7 0 3.22.333 4.56 1 1.34.648 2.39 1.547 3.15 2.695.76 1.149 1.14 2.482 1.14 4.001 0 1.482-.38 2.806-1.14 3.973-.76 1.149-1.81 2.056-3.15 2.723-1.34.667-2.86 1-4.56 1zm0-3.557c.78 0 1.48-.167 2.1-.5a3.724 3.724 0 001.47-1.417c.36-.63.54-1.37.54-2.223 0-.87-.18-1.611-.54-2.223a3.723 3.723 0 00-1.47-1.417c-.62-.333-1.32-.5-2.1-.5s-1.48.167-2.1.5c-.62.334-1.12.806-1.5 1.417-.36.612-.54 1.353-.54 2.223 0 .852.18 1.593.54 2.223.38.611.88 1.084 1.5 1.417.62.333 1.32.5 2.1.5z" fill="#696969"/><path d="M51.426 2.807c-2.812.095-5.689.707-6.926 1.843-1.233 1.134-.987 2.769-.708 4.56a2.76 2.76 0 01.24-.45c.367-.564.962-1.12 1.732-1.913.461-.472 1.805-1.674 1.925-1.724.021-.006-.126.146-.32.341-1.125 1.116-1.906 2.119-2.198 2.828-.13.326-.164.753-.062.76.16.006.97-.266 1.47-.494 1.415-.65 2.195-1.404 3.712-3.594.662-.958 1.175-1.617 1.512-1.94.105-.105.199-.205.197-.227.004-.02-.35.002-.574.01z" fill="#00D870"/><path d="M43.692 5.437a3.21 3.21 0 00-.811-1.112c-.241-.207-.797-.503-1.236-.657-.4-.144-.81-.238-2.319-.553a15.61 15.61 0 01-.988-.237c-.422-.129-.882-.355-1.132-.553-.207-.171-.25-.185-.16-.059.03.04.21.402.398.805.753 1.599 1.181 2.404 1.685 3.17 1.153 1.755 2.334 2.697 3.694 2.945.352.064.953.056 1 0 .142-.163-.243-1.39-.323-1.713-.033-.135-.136-.6-.551-.991-.639-.602-1.478-1.161-2.206-1.473a4.73 4.73 0 01-.335-.15c-.005-.022.387.043.596.095.759.19 1.405.556 2.09 1.286.502.536.57 1.12.598 1.233-.002.15.023.094 0 0 .308-.299.178-1.605 0-2.036z" fill="#00D870"/></svg>
