<svg width="67" height="27" fill="none" xmlns="http://www.w3.org/2000/svg"><path d="M0 25.957V6.507h10.26c2.64 0 4.62.464 5.94 1.39 1.34.926 2.01 2.148 2.01 3.667 0 1.019-.27 1.908-.81 2.668-.54.74-1.28 1.315-2.22 1.722-.94.408-2.02.611-3.24.611l.57-1.139c1.32 0 2.49.204 3.51.612 1.02.389 1.81.972 2.37 1.75.58.778.87 1.732.87 2.862 0 1.667-.71 2.973-2.13 3.918-1.42.926-3.51 1.389-6.27 1.389H0zm4.83-3.39h5.67c1.26 0 2.21-.185 2.85-.556.66-.389.99-1 .99-1.833 0-.816-.33-1.418-.99-1.806-.64-.408-1.59-.612-2.85-.612H4.47v-3.278h5.19c1.18 0 2.08-.186 2.7-.556.64-.389.96-.973.96-1.75 0-.76-.32-1.325-.96-1.695-.62-.39-1.52-.584-2.7-.584H4.83v12.67zm27.68 3.39v-2.918l-.3-.639v-5.223c0-.926-.31-1.649-.93-2.167-.6-.52-1.53-.778-2.79-.778a8.6 8.6 0 00-2.55.389c-.82.24-1.52.574-2.1 1l-1.68-3.029c.88-.574 1.94-1.019 3.18-1.333 1.24-.315 2.5-.473 3.78-.473 2.46 0 4.37.537 5.73 1.612 1.36 1.074 2.04 2.75 2.04 5.029v8.53h-4.38zm-4.92.222c-1.26 0-2.34-.194-3.24-.583-.9-.408-1.59-.954-2.07-1.64a3.926 3.926 0 01-.72-2.306c0-.889.23-1.667.69-2.334.48-.667 1.23-1.185 2.25-1.556 1.02-.389 2.35-.583 3.99-.583h4.29v2.528H29c-1.1 0-1.86.167-2.28.5-.4.334-.6.75-.6 1.25 0 .556.23 1 .69 1.334.48.315 1.13.473 1.95.473.78 0 1.48-.167 2.1-.5a3.078 3.078 0 001.35-1.529l.72 2a3.934 3.934 0 01-1.86 2.196c-.9.5-2.06.75-3.48.75zm13.535-.222V11.009h4.68v14.948h-4.68zm16.703.222c-1.72 0-3.25-.333-4.59-1-1.32-.667-2.37-1.575-3.15-2.723-.76-1.167-1.14-2.491-1.14-3.973 0-1.5.38-2.825 1.14-3.974.78-1.167 1.83-2.074 3.15-2.722 1.34-.667 2.87-1 4.59-1 1.7 0 3.22.333 4.56 1 1.34.648 2.39 1.546 3.15 2.695.76 1.148 1.14 2.482 1.14 4 0 1.483-.38 2.807-1.14 3.974-.76 1.148-1.81 2.056-3.15 2.723-1.34.667-2.86 1-4.56 1zm0-3.556c.78 0 1.48-.167 2.1-.5a3.724 3.724 0 001.47-1.418c.36-.63.54-1.37.54-2.222 0-.87-.18-1.612-.54-2.223a3.723 3.723 0 00-1.47-1.417c-.62-.334-1.32-.5-2.1-.5s-1.48.166-2.1.5c-.62.333-1.12.806-1.5 1.417-.36.611-.54 1.352-.54 2.223 0 .852.18 1.593.54 2.223.38.61.88 1.083 1.5 1.416.62.334 1.32.5 2.1.5z" fill="#696969"/><path d="M51.426 1.812c-2.812.095-5.689.707-6.926 1.843-1.233 1.134-.987 2.77-.708 4.56a2.78 2.78 0 01.24-.449c.367-.564.962-1.12 1.732-1.913.461-.472 1.805-1.675 1.925-1.725.021-.005-.126.146-.32.342-1.125 1.115-1.906 2.118-2.198 2.828-.13.325-.164.753-.062.759.16.007.97-.265 1.47-.493 1.415-.65 2.195-1.405 3.712-3.595.662-.958 1.175-1.617 1.512-1.939.105-.105.199-.206.197-.227.004-.02-.35.001-.574.01z" fill="#00D870"/><path d="M43.692 4.442a3.21 3.21 0 00-.811-1.112c-.241-.207-.797-.502-1.236-.657-.4-.143-.81-.238-2.319-.553a15.61 15.61 0 01-.988-.236c-.422-.13-.882-.355-1.132-.554-.207-.17-.25-.185-.16-.058.03.04.21.401.398.804.753 1.6 1.181 2.404 1.685 3.17C40.282 7 41.463 7.944 42.823 8.19c.352.064.953.056 1 0 .142-.162-.243-1.39-.323-1.713-.033-.135-.136-.6-.551-.99-.639-.602-1.478-1.162-2.206-1.473a4.73 4.73 0 01-.335-.15c-.005-.023.387.043.596.094.759.19 1.405.556 2.09 1.287.502.536.57 1.12.598 1.232-.002.15.023.095 0 0 .308-.298.178-1.604 0-2.036z" fill="#00D870"/></svg>