<svg width="28" height="26" fill="none" xmlns="http://www.w3.org/2000/svg"><path d="M27.998 25.338a.608.608 0 01-.218.459.706.706 0 01-.495.201.716.716 0 01-.466-.119l-6.411-5.933 1.047-.974 6.415 5.936a.59.59 0 01.128.43z" fill="#2A3843"/><path d="M12.298 22.85c6.82 0 12.347-5.115 12.347-11.425C24.645 5.115 19.118 0 12.298 0l.025 1.487c5.945 0 10.764 4.46 10.764 9.96 0 5.502-4.82 9.961-10.764 9.961l-.025 1.443z" fill="#2A3843"/><path d="M12.347 22.85C5.528 22.85 0 17.736 0 11.426 0 5.115 5.528 0 12.347 0l-.024 1.487c-5.945 0-10.764 4.46-10.764 9.96 0 5.502 4.819 9.961 10.764 9.961l.024 1.443z" fill="#2A3843"/></svg>