<svg width="10" height="11" fill="none" xmlns="http://www.w3.org/2000/svg"><path d="M10 10.011a.216.216 0 01-.078.163.253.253 0 01-.177.072.256.256 0 01-.167-.042L7.288 8.09l.375-.347 2.29 2.115a.21.21 0 01.046.153z" fill="#2A3843"/><path d="M4.392 9.125c2.436 0 4.41-1.822 4.41-4.07S6.828.985 4.392.985l.009.53c2.123 0 3.844 1.588 3.844 3.548s-1.72 3.548-3.844 3.548l-.009.514z" fill="#2A3843"/><path d="M4.41 9.125C1.974 9.125 0 7.303 0 5.055S1.974.985 4.41.985l-.009.53C2.278 1.515.557 3.103.557 5.063S2.277 8.611 4.4 8.611l.009.514z" fill="#2A3843"/></svg>